<svg id="Layer_1" data-name="Layer 1" xmlns="http://www.w3.org/2000/svg" viewBox="0 0 33.3 33.3"><defs><style>.cls-1{fill:#f2f2f2;}</style></defs><title>tumblr</title><path class="cls-1" d="M17.08,9.1V13h3.7v2.45h-3.7v4a6.35,6.35,0,0,0,.14,1.74,1.19,1.19,0,0,0,.53.61,2.26,2.26,0,0,0,1.18.31,4.26,4.26,0,0,0,2.35-.77v2.46a9.3,9.3,0,0,1-1.81.66,7.69,7.69,0,0,1-1.75.19,6.06,6.06,0,0,1-1.89-.27,4.08,4.08,0,0,1-1.4-.77,2.79,2.79,0,0,1-.8-1.06,4.6,4.6,0,0,1-.22-1.63V15.48H11.7V13.28a4.57,4.57,0,0,0,1.57-.86,4.27,4.27,0,0,0,1.05-1.34,6,6,0,0,0,.55-2h2.22Z"/></svg>