<svg id="Layer_1" data-name="Layer 1" xmlns="http://www.w3.org/2000/svg" viewBox="0 0 33.3 33.3"><defs><style>.cls-1{fill:#f2f2f2;}</style></defs><title>tweet</title><path class="cls-1" d="M25.28,12.45a6.6,6.6,0,0,1-1.9.52,3.31,3.31,0,0,0,1.45-1.83,6.61,6.61,0,0,1-2.1.8,3.3,3.3,0,0,0-5.62,3,9.37,9.37,0,0,1-6.8-3.45,3.3,3.3,0,0,0,1,4.41,3.29,3.29,0,0,1-1.49-.41v0a3.3,3.3,0,0,0,2.65,3.24,3.31,3.31,0,0,1-1.49.06,3.3,3.3,0,0,0,3.08,2.29A6.62,6.62,0,0,1,10,22.54a6.7,6.7,0,0,1-.79,0,9.39,9.39,0,0,0,14.45-7.91q0-.21,0-0.43A6.71,6.71,0,0,0,25.28,12.45Z"/></svg>